<?xml version="1.0"?>
<svg xmlns="http://www.w3.org/2000/svg" id="Calque_2" data-name="Calque 2" viewBox="0 0 1050.17 1050.21">
  <defs>
    
  </defs>
  <g id="Calque_1-2" data-name="Calque 1">
    <g id="Calque_2-2" data-name="Calque 2">
      <g id="Calque_1-2" data-name="Calque 1-2">
        <path class="cls-1" d="m1.27,500.6v-28.53c0-1.7-.35-3.56.2-5.06,4.77-13,3.28-26.83,4.78-40.25.89-7.92,2.55-15.41,6.34-22.49,1.68-3.14,2.16-6.95,3.16-10.46.17-.59.13-1.23.28-1.83,3.89-15,7.32-30.19,11.92-45,2-6.43,6.53-12,9.64-18.11,4.15-8.19,8.42-16.35,11.95-24.82,5.89-14.03,12.93-27.3,22.46-39.28,5.06-6.4,9.1-13.64,13.54-20.54,6.11-9.5,12-19.12,18.28-28.54,3.94-6,8-11.87,12.5-17.43,5.64-7,11.56-13.86,17.68-20.47,7.47-8.06,14.7-16.54,23.12-23.45,6.51-5.33,10.6-12.79,16.81-17.82,11.07-9,20.59-19.92,33.66-26.5,7.78-3.92,14.57-9.91,21.66-15.17,11.85-8.83,24.09-16.66,38.31-21.57,9.08-2.98,17.47-7.74,24.69-14,10.29-9.18,21.42-17.14,35.6-19.33,4.08-.63,7.93-2.84,11.89-4.32,1.5-.74,3.07-1.31,4.69-1.71,13.46-1.92,25.24-8.95,38-12.92,7.19-2.24,14.32-4.66,21.48-7,7.35-2.36,14.57-5.45,22.1-6.79,7.21-1.28,14.73-.84,22.11-.94,5.31-.07,10.64.57,15.92.24,3-.18,5.94-1.64,8.89-2.58,2-.63,4-1.85,6-2,15.89-.76,31.78-1.58,47.68-1.91,9.39-.19,18.82,1.15,28.17.69,14.7-.89,29.45.03,43.92,2.74.45.1.9.15,1.36.14,26.33-.71,51,7.8,76.32,13.37,12.29,2.7,22.55,9.6,34.09,13.67,10.53,3.71,20.35,9.39,31.95,9.93,4,.18,8,2.61,11.77,4.52,8.66,4.39,17.59,8.43,25.62,13.83,8.64,5.8,18.7,8,27.51,12.82,8.29,4.57,15.44,11.27,23.07,17.06,8.61,6.54,17.26,13,25.75,19.71,3.33,2.68,6.48,5.58,9.43,8.68,8.28,8.59,16.31,17.42,24.68,25.91,3.08,3.12,7.33,5.09,10.19,8.36,7,8,13.51,16.58,20.34,24.8,2.24,2.69,5.09,4.86,7.27,7.58,4.85,6,9.5,12.23,14.15,18.42s9.32,12.4,13.8,18.77c3.33,4.68,6.53,9.48,9.59,14.35,4.7,7.49,9.28,15.07,13.82,22.67,2.35,3.93,4.66,7.88,6.71,12,3.86,7.67,7.83,15.31,11.17,23.21,4.66,11,8.73,22.25,13.12,33.37,3.78,9.56,7.37,19.21,11.54,28.59,6.37,14.35,9.69,29.49,12.55,44.83,3.32,17.88,7.88,35.57,10.26,53.57,2.64,20,3.81,40.21,4.88,60.38.77,12.92.7,25.88-.23,38.79-1.25,15.8-3.68,31.53-6.16,47.19-.77,4.92-3.88,9.42-5,14.33-1.63,7.34-2,15-3.7,22.28-2.7,11.51-5.76,23-9.24,34.25-4.72,15.33-13,29.57-13.25,46.28-.05,2.52-1.68,5.34-3.3,7.46-6.22,8.17-9.59,17.63-13.48,27-4.91,11.86-11.57,23-17.63,34.33-3.67,6.88-7.23,13.89-11.54,20.36-10.6,15.91-22.38,31.06-32.19,47.45-6.34,10.6-14.79,18.59-23.46,26.7-2,1.87-4.32,3.37-6.49,5-1.08.83-2.68,1.43-3.17,2.54-4.09,9.24-12.3,14.77-19,21.54-13.27,13.43-26.78,26.65-42.31,37.47-12.46,8.67-24.78,17.55-37.31,26.11-3,2-7.22,2.34-9.71,4.72-9.81,9.37-23,12.12-34.25,18.7-5.83,3.41-13.23,4.22-20,5.72-4.75,1-9.3,1.67-13.24,5.27-2.45,2.24-6.21,3-9.44,4.31s-6.69,1.61-9.32,3.46c-12.31,8.67-26.44,12-40.65,15.28-12.4,2.83-25.09,4.68-37.16,8.54-12.76,4.08-25.82,5.27-38.83,6.15-10.09.53-20.12,1.87-30,4-13.67,3.12-26.66-1.76-39.49-6.25-3.41-1.19-7.09-2.48-10.6-2.35-15.7.58-31.53-1.52-47.07,2.35-8.28,2.06-16.51,1.6-24.78-.35-13.11-3.1-26.36-5.65-39.4-9-6.41-1.66-12.4-4.93-18.73-7-8.75-2.89-17.82-4.67-25.78-9.92-2.75-1.82-6.7-1.67-10-2.75-10.06-3.32-20-6.92-30.12-10.18-3.89-1.25-8-1.71-11.94-2.85s-8.61-1.83-11.79-4.28c-9.31-7.16-19.83-11.85-30.32-16.51-13.26-5.89-24.3-14.77-35.19-24.12-17.58-15.13-35.3-30.07-53.16-44.82-5.74-4.75-12.38-8.4-17.9-13.37-9.53-8.57-18.85-17.43-27.57-26.84-5.55-6-9.8-13.23-14.75-19.82-2.19-3.12-4.65-6.05-7.35-8.75-8.82-8.24-15-18.31-20.57-28.95-1.54-2.93-4.32-5.16-6.14-8-4.07-6.28-8.29-12.51-11.73-19.14-7.71-14.91-17.69-28.56-22.59-45-2.92-9.83-8-19-11.36-28.71-4.8-13.77-9.76-27.57-13.16-41.72-3.22-13.38-7.86-26.59-7.3-40.81.18-4.82-1.52-9.71-2.21-14.59-2-14.5-4.45-29-5.94-43.51-2.26-22.13-3.89-44.31-1.37-71.38Zm562.24,532.48c16.32,2.36,31.41-1.54,46.52-4.86,10.64-2.33,21.24-4.88,31.75-7.73,8.61-2.34,17-5.58,25.61-7.86,9.81-2.59,19.82-4.39,29.65-6.88,3.47-.88,6.57-3.24,10-4.16,7.72-2.06,15.56-3.05,22.66-7.65,8.47-5.49,17.73-9.71,26.65-14.49.4-.21.72-.58,1.13-.78,4.31-2.12,8.58-4.35,13-6.28,2.75-1.21,5.88-1.6,8.52-3,5.48-2.9,10.44-7.1,16.16-9.18,9.56-3.46,15.78-11.29,23.59-17,7.62-5.53,14.23-12.47,21.58-18.41,14-11.32,29.47-20.8,40.39-35.95,5.49-7.62,12.82-13.86,19.35-20.69,4.84-5.07,9.77-10,14.58-15.13,2.52-2.66,4.88-5.48,7.3-8.24,9-10.29,19.45-19.46,23.2-33.57.63-2.35,2.7-4.41,4.38-6.35,5.86-6.78,11.89-13.09,14.66-22.35,2.47-8.26,7.31-15.79,11.17-23.61,4.54-9.21,10.12-17.93,11.84-28.4.54-2.88,1.61-5.64,3.15-8.14,3.94-6.56,5.83-13.68,7.61-21.1,2.43-10.13,6.4-19.88,9.65-29.81.72-2.18,1.3-4.41,1.72-6.67,2.78-15.29,5.19-30.66,8.34-45.87,2.81-13.57,6.45-26.95,9.63-40.44.54-2.1.76-4.27.64-6.43-1.23-15.52,4.27-30.93.73-46.5-.42-1.87.22-4,.39-6,1.46-16.93.32-33.98-3.36-50.57-1.69-7.66-3.06-15.41-4.24-23.17-1.48-9.76-2.14-19.66-4-29.32-2.42-12.51-6.45-24.72-8.41-37.28-2.17-13.95-8.17-26.36-13-39.28-3.89-10.51-7.87-21-12.08-31.37-2.71-6.67-5.85-13.17-8.92-19.68-1.64-3.47-3.82-6.7-5.29-10.23-3.62-8.66-6.87-17.45-13.6-24.34-2.87-2.94-6-6-7.64-9.69-4.24-9.35-10.06-17.49-16.56-25.23-2.76-3.27-5.45-6.6-8.12-9.95-6.48-8.14-13-16.25-19.39-24.47-6.64-8.55-13-17.36-19.78-25.76-3.87-4.64-8.08-8.99-12.6-13-3.57-3.23-8.56-5.12-11.4-8.81-7.82-10.14-15.92-19.8-26.65-26.91-2.9-1.93-5.46-4.39-8.28-6.47-6.49-4.78-12.79-9.92-19.64-14.1-10.47-6.4-21.3-12.21-32.1-18-3-1.43-6.13-2.55-9.35-3.35-3-.9-6.28-1.17-9.21-2.32-13.63-5.39-27.22-10.9-40.79-16.53-9.11-3.79-18.07-7.92-27.13-11.82-2.59-1.17-5.26-2.15-8-2.93-6.74-1.77-13.59-3.12-20.31-5-22.51-6.21-45-12.56-67.46-18.84-.74-.19-1.5-.29-2.26-.28-8.77.08-17.54.14-26.31.27-13,.2-26.06.52-39.1.67-11.63.13-23.34,1.24-34.65-3.08-2.04-.59-4.21-.59-6.25,0-5.89,1.33-11.68,3.12-17.56,4.51-19,4.49-38.08,8.82-57.09,13.33-4.27,1-8.41,2.56-12.65,3.73-4.06,1.13-8.12,2.58-12.27,3-6.57.7-12.79,1.94-18.5,5.6-3.1,1.9-6.39,3.47-9.81,4.71-8.35,3.17-17.08,5.49-25.14,9.29-12,5.68-21.44,16-34.22,20.57-.14,0-.24.19-.38.25-8.33,3.89-15.08,11-24.74,12.25-2.13.34-4.13,1.22-5.82,2.55-9.74,7.55-19.28,15.37-29,22.88-3.1,2.39-6.46,5-10.1,6-8.22,2.22-14.6,7.44-21.1,12.35-4.02,3.07-7.44,6.84-10.11,11.14-4.64,7.54-10.52,13-18.85,15.79-1.83.71-3.43,1.9-4.63,3.46-4.06,5.18-7.63,10.77-11.86,15.81-4.67,5.56-9.31,11.42-15,15.81-6.87,5.34-12.6,11.26-16.83,18.89-3.39,6.13-7,12.13-10.83,18-1.73,2.67-4.36,4.71-6.2,7.32-4.87,6.87-9.59,13.87-14.27,20.87-4.17,6.2-8.79,12.2-12.22,18.87-6.72,13.22-12.06,27.2-19.23,40.14-6.33,11.15-10.81,23.25-13.27,35.84-1.72,8.94-7.07,17.15-10.66,25.74-3.43,8.18-8,16.15-9.7,24.71-2.65,13.22-3,26.9-4.91,40.29-1,7.13-4.34,14-4.9,21.09-1.69,21.52-3.33,43.1-3.44,64.67-.05,16.1,2.17,32.23,3.86,48.3.69,6.54,3.16,12.89,3.91,19.43,1.28,11.17,1.81,22.43,2.71,33.64.83,10.35,2.33,20.38,12.33,26.31,4.79,2.83,5.35,6.79,3.46,11.88-3.39,8.76-3.02,18.52,1,27,2.57,6.1,4.75,12.35,6.53,18.72,2.73,9.09,4.38,18.59,7.85,27.36,3.92,9.67,8.6,19.01,14,27.94,5.47,9.19,12,17.69,18,26.55,2.06,3,3.67,6.37,5.84,9.31,8.9,12.06,18.31,23.76,26.81,36.11,8.65,12.56,17.73,24.57,29.39,34.42,3.72,3.15,7.12,6.69,10.62,10.11,5.64,5.54,11.07,11.33,16.94,16.62,3.14,2.83,7.19,4.59,10.49,7.27,15.81,12.86,31.55,25.82,47.21,38.87,8.1,6.76,16.18,13.32,26.4,16.76,4.79,1.62,9,5,13.62,7.2,5,2.41,10.1,4.61,15.27,6.61,4.09,1.58,8.53,2.3,12.49,4.12,7.83,3.62,15.3,8.09,23.19,11.56,8.7,3.82,17.07,8.62,27.1,8.71,4.33,0,8.69,1.86,12.93,3.21,7.92,2.53,15.58,6.37,23.66,7.76,15.54,2.68,31,4.92,45.8,11.11,9.09,3.74,19.2,4.18,28.58,1.26,6.18-1.92,12.55-3.18,19-3.77,13.45-1,27-2,39.94,3.61,12.02,5.08,24.18,8.64,36.69,6.93h0Z"></path>
        <path class="cls-1" d="m539.64,813.47c-4.09,0-7.78.16-11.44-.05-3.13-.18-6.22-.82-9.34-1.2-2.09-.25-4.21-.44-6.32-.57-2.63-.17-5.33.09-7.88-.42-9.21-1.86-18.37-3.92-27.54-6-8.65-2-17.29-4-25.93-6-7.65-1.76-15.33-3.41-22.93-5.35-3.04-.84-6-1.95-8.85-3.32-9.68-4.38-19.39-8.73-28.92-13.41-4.27-2.27-8.4-4.78-12.38-7.53-6.48-4.17-12.86-8.5-19.36-12.65-12.87-8.24-25.15-17.17-36.09-27.81-3.09-3-6.79-5.46-9.77-8.57-3.02-3.15-5.73-6.59-8.08-10.27-4.54-7.15-8.72-14.51-13-21.8-2.77-4.69-5.59-9.35-8.21-14.11-3-5.43-5.55-11.09-8.72-16.41s-6.77-10.38-10.3-15.48c-4.62-6.68-8.38-13.71-10.4-21.61-2-7.6-4.47-15.08-6.15-22.73-2.17-9.87-3.86-19.84-5.55-29.8-1.77-10.37-3.32-20.77-4.91-31.17-.63-4.13-1.27-8.27-1.55-12.43.02-1.83.4-3.63,1.13-5.31.74-1.69.65-3.63-.24-5.24-.81-1.54-1.16-3.27-1-5,1.85-15.84,2.51-31.83,6.34-47.42.59-2.43,1-4.91,1.49-7.37s1.39-5,3.82-6.57c.59-.57.91-1.36.88-2.18-.1-6.22,1.46-12.35,4.5-17.77.62-1.45,1.14-2.94,1.57-4.46,1.05-2.63,2.18-5.23,3.29-7.84.4-.63.74-1.3,1-2,.84-5.09,3.54-9.35,6.15-13.67,1.07-1.78,1.71-3.8,2.72-5.62,2.66-4.82,5.42-9.59,8.13-14.38.53-.94,1-1.91,1.6-2.8,2-3,3.67-6.25,6.16-8.74,3.79-3.8,7.57-7.49,10.44-12.05,1.41-2.23,3.48-4.06,5.15-6.16,1.49-1.73,2.13-4.02,1.76-6.27-.52-3.56,2.41-5.67,4.6-8,2.28-2.46,4.69-4.79,7.22-7,2.92-2.47,6.08-4.66,9.13-7,1.21-.92,2.4-1.87,3.62-2.78,2-1.45,4-2.83,5.91-4.35.73-.67,1.38-1.44,1.93-2.27.67-1.05,1.41-2.05,2.22-3,10.33-10.23,21.42-19.58,34-27.19,9.35-5.67,18.38-12,28.17-16.82,7.76-3.83,15.1-8.6,23.79-10.84,4.22-.94,8.52-1.44,12.84-1.48.84.09,1.7.05,2.53-.12,3.88-1.66,7.7-3.45,11.53-5.21.23-.1.44-.36.66-.37,5.76-.19,10.63-4,16.59-3.72,2.37.1,4.89-1.09,7.18-2.06,3-1.27,5.84-3,8.86-4.32,1-.44,2.34-.19,3.52-.16,4,.09,8,.49,12,.31,10.15-.48,20.3-1.71,30.45-1.71,13.92,0,27.93.12,41.55,3.61,6.34,1.63,12.63,3.51,18.87,5.47s12.64,4.06,18.84,6.4c10.4,3.92,21,7.43,30.68,13,5.43,3.12,11.3,5.49,16.87,8.38,5.26,2.73,10.36,5.78,15.6,8.55,6.37,3.38,12.89,6.48,19.19,9.95,5.68,3.12,11.73,5.47,16.54,10.24,3.69,3.67,8.71,6.09,13.23,8.92,2.32,1.45,4.16,3,4.84,5.83.43,1.19,1.2,2.22,2.23,2.95,2.89,2.33,6.17,4.25,8.81,6.8,2.33,2.42,4.39,5.08,6.13,7.95,3.49,5.33,6.9,10.72,10.09,16.22s6.16,11.3,9.25,16.94c1.25,2.28,2.6,4.5,3.9,6.75,3.6,6.23,7.18,12.48,10.83,18.69,3.09,5.26,6.66,10.29,9.32,15.75,3.25,6.65,7.35,12.93,9,20.36,1.43,6.5,3.81,12.8,5.6,19.24,1.1,3.94,1.89,8,2.81,11.95,1.58,6.91,3.31,13.8,4.69,20.75,2.46,12.36,5.71,24.6,6.14,37.29.06,1.5.16,3,.36,4.5.97,7.04.63,14.2-1,21.12-.86,3.73-.2,7.78-.41,11.67-.33,5.91-.58,11.83-1.29,17.7-.55,4.46-1,9.17-2.86,13.17-2.17,4.68-3.36,9.52-4.89,14.34-1.94,6.12-4.33,12.1-6.66,18.09-1.62,4.19-3.49,8.29-5.17,12.47-.41,1.18-.74,2.38-1,3.6-2.23,7.81-5.66,15.24-10.16,22-3.08,4.69-5.6,9.73-8.5,14.54-1.2,2-2.78,3.75-4.12,5.66-2,2.94-4.65,5.69-5.91,8.94-1.83,4.77-4.42,9.21-7.67,13.16-.28.31-.51.67-.65,1.07-2.62,8-8.74,13-15.46,17.61-1.5,1-2.51,2.69-3.87,3.93-4.44,4-8.84,8.09-13.43,11.94-4.08,3.42-8.36,6.62-12.61,9.85-3.63,2.77-7.31,5.46-11,8.16-9,6.61-18,13.28-27.12,19.76-3.16,2.25-6.64,4.08-10,6-5.07,2.92-10.08,6-15.3,8.62-4.63,2.33-8.89,5.71-14.6,5.51-1.28.08-2.5.59-3.45,1.46-3.85,3.4-8.49,4.79-13.44,5.71-2.31.42-4.45,1.69-6.75,2.17-5.83,1.21-11.17,3.9-16.88,5.3-9.77,2.38-19.65,4.4-29.59,6-6.63,1.14-13.35,1.14-19.6,1.59Zm-274.56-215.45l-1.22.35c.83,2.65,1.61,5.32,2.52,7.95s1.83,5,2.82,7.49c.92,2.31,1.84,4.63,2.9,6.88,1.34,2.86,3.28,5.53,4.13,8.51,1.57,5.52,2.55,11.21,3.74,16.84.44,2.54,2.15,4.68,4.54,5.67.95.37,1.75,1.04,2.28,1.91,2.75,6.06,5.35,12.19,8,18.3.02.08.02.17,0,.25.48,3.36,2.14,6.44,4.68,8.69.97.93,1.88,1.94,2.71,3,5.33,6.83,10.65,13.68,15.94,20.54.92,1.19,1.73,2.46,2.63,3.66,1.59,2.42,3.36,4.72,5.28,6.88,2.47,2.28,5.07,4.42,7.78,6.41,1.72,1.37,3.45,2.74,5.23,4,6.52,4.72,13,9.45,19.59,14.11,6.21,4.4,12.43,8.79,18.75,13,2,1.34,4,2.47,4.91,4.84,1.06,2.79,3.19,4.58,5.72,6.17,1.93,1.37,3.7,2.94,5.3,4.69,5.83,5.77,12.57,9.55,21.08,10.07,2,.12,4.45.68,5.86,1.93,4.67,4.14,10.23,4.39,16,4.5,2.62.09,5.23.42,7.79,1,3.31.71,6.57,1.64,9.81,2.62,2.23.69,4.42,1.5,6.57,2.42,2.3,1,4.46,2.41,6.84,3,2.7.72,5.61.6,8.38,1.11,7.89,1.44,15.75,3,23.63,4.52,2.15.41,4.32.77,6.51,1,3,.3,6.11.3,9.14.69,3.46.44,6.89,1.48,10-1.19.82-.45,1.75-.64,2.68-.55,3-.06,5.94-.07,8.9,0,1.45,0,2.89.43,4.32.41,1.98-.02,3.95-.18,5.9-.48,3.25-.5,6.49-1.65,9.72-1.61,2.85,0,5.31.08,7.68-1.75,2.76-2.13,5.32-2,7.93.1,2.87,2.27,4.15,2,7.18-.2,1.95-1.29,4.06-2.33,6.28-3.07,2-.77,4.24-1.06,6.26-1.83,5.68-2.13,10.47-6,16.76-7.12,6.1-1.08,12-3.33,17.93-5.18,3.35-.94,6.62-2.13,9.79-3.55,3.2-1.54,6.07-3.71,9.13-5.52,3.57-2.1,7.39-3.85,10.74-6.23,2.25-1.66,4.82-2.82,7.55-3.42,2.07-.47,4.05-1.25,5.87-2.33,2.76-1.64,5.33-3.59,7.92-5.48,1.51-1.07,2.94-2.24,4.28-3.52,4.81-4.93,10.6-8.8,17-11.37,1.85-.77,3.54-1.87,5-3.25,3.66-3.36,7.14-6.91,10.66-10.42,2.61-2.59,5.36-5.08,7.7-7.89,5.38-6.47,10.59-13.08,15.8-19.68,1.24-1.58,2.35-3.25,3.33-5,1.9-3.4,3.92-6.63,7.71-8.42,1.05-.55,1.97-1.32,2.68-2.27,4.3-5.41,5.05-12.5,8.91-18.15.5-1.04.95-2.1,1.33-3.19,3.24-6.24,6.69-12.39,9.74-18.72,1.58-3.3,2.49-6.84,5.61-9.34,1.12-1.14,1.88-2.59,2.17-4.17.72-2.83.75-5.85,1.69-8.59,1.61-4.94,3.59-9.76,5.93-14.4,2.44-4.46,4.1-9.3,4.91-14.31.63-4.28.47-8.67,1-13,.18-1.62,1.3-3.13,1.79-4.75.43-1.44.71-2.92.85-4.41.21-2-.51-4.55.48-6,2.87-4.18,3.77-8.69,4-13.51.1-1.74.65-3.45.79-5.2.1-1.56.1-3.13,0-4.69-.12-2.82-.8-5.73-.32-8.44.84-4.54.38-9.22-1.33-13.5-.56-1.56-.77-3.23-.61-4.88.3-3.49,1.18-6.94,1.3-10.42.08-2.24-.69-4.53-1.27-6.74-.43-1.6-1.8-3.16-1.69-4.66.51-5.01-.44-10.06-2.74-14.54-.21-.46-.28-.98-.2-1.48.86-5.5-1.39-10.52-2.69-15.65-.65-2.6-1.85-5.02-3.51-7.12-2.07-2.49-2.06-4.91-2-7.88.17-4.42-.6-8.87-1-13.3,0-.3-.31-.58-.49-.87-1-1.71-2-3.48-3.16-5.1-.78-1.2-1.8-2.22-3-3-3.77-2-5.48-4.94-4.73-9.08.48-2.43-.26-4.94-2-6.7-.76-.79-1.4-1.69-1.9-2.66-3.23-6.75-7.59-12.89-12.91-18.15-.63-.77-.98-1.73-1-2.73-.02-1.42.08-2.84.3-4.24.39-4.37-2.83-8.23-7.2-8.62-.18-.02-.36-.03-.53-.03-2.76.14-5.11-1.99-5.24-4.74-.03-.55.03-1.09.18-1.62.18-.73.38-1.46.53-2.2.37-1.81-.25-2.9-2.27-3.1-2.85-.27-4.67-1.9-6.35-4.13-2.19-2.65-4.52-5.17-7-7.55-1.21-1.27-2.52-2.44-3.68-3.74-2.05-2.29-3.73-5-6.1-6.86-1.82-1.44-3.46-2.43-3.41-5s-1.1-4.22-3.65-5.69c-2.75-1.67-5.04-3.99-6.68-6.76-3.75-6.27-8.71-10.38-16.33-10.87-2.55-.17-5.11-.25-7.67-.34-4.77-.16-6.64-3-4.59-7.17.87-1.76.35-2.54-1.36-3.24-1.65-.66-3.21-1.53-4.64-2.59-3.8-2.9-7.51-4.56-12.43-2-2.88,1.51-6.43.4-7.94-2.48-.16-.31-.3-.64-.4-.97-.39-1.17.17-2.6,0-3.88-.03-1.45-.41-2.87-1.11-4.13-.38-.51-2.29-.2-3.4.11-2.53.81-5.28-.31-6.53-2.66-1.46-2.9-3.77-3.47-6.6-2.92-7.48,1.44-14-1.23-20.29-4.56-1.19-.78-2.08-1.93-2.53-3.28-1.79-4.85-4-5.51-8.39-2.35-.71.51-1.83,1.13-2.52.92-3.93-1.16-8.08-1.89-10.16-6.29-1.01-1.99-2.64-3.6-4.63-4.6-2.3-1.11-5.11-1.19-7.68-1.8-3.07-.61-6.11-1.41-9.08-2.4-2.5-.93-4.78-1.14-7.16,0-2.2,1.22-4.82,1.41-7.18.54-.8-.31-1.64-.47-2.5-.46-6.64.19-13.22.62-19.9-.24-5.62-.73-11.42-.28-17.13-.25-6.31,0-12.71-.43-18.68,2.17-3.08,1.52-6.5,2.2-9.92,2-.76-.02-1.53.08-2.26.29-3,.69-6.06,1.51-9.12,2.09s-6.5.16-9.35,2.16c-.8.3-1.65.41-2.5.32-3.22.21-6.58-.09-9.63.71-3.65,1.1-7.18,2.58-10.53,4.4-1.83.92-3.31,2.5-5,3.67-1.21.82-2.57,2.07-3.84,2.05-5-.09-9.37,1.93-13.63,3.95-2.85,1.35-5.26,3.59-7.94,5.31-1.25.84-2.62,1.48-4.07,1.9-3.66.94-7.38,1.62-11.06,2.48-4.24.84-7.72,3.85-9.15,7.93-.95,2.46-3,3.37-5.62,3.68-1.5.21-2.94.69-4.27,1.41-2,1.08-3.75,2.69-5.81,3.62-6.56,2.95-10.4,9.82-17.72,11.61-.16,0-.27.21-.41.3-5.77,3.8-10.68,8.79-14.39,14.62-2.76,4.23-5.75,8.3-8.95,12.2-3.49,4.52-7,9.05-10.74,13.36-2.71,3.09-5.89,5.79-8.8,8.72-3.35,3.38-6.31,7-7.46,11.74-.48,1.7-1.23,3.31-2.22,4.77-3.87,6.14-7.91,12.19-11.78,18.34-3.53,5.63-3.75,12.49-6.88,18.29-.82,1.52-1.34,3.19-2,4.76-2.11,4.7-4.52,9.3-6.26,14.12-1,2.85-1.44,5.81-4.08,7.83-.66.52-1.14,1.25-1.37,2.06-1.52,6.31-3.11,12.62-4.38,19-1.11,5.56-2,11.18-2.72,16.8-.82,6.34-2.72,12.59-1.36,19.13.32,1.52-.48,3.41-1.18,4.95-2.19,4.81-6.38,9.13-3.52,15.06.07.24.09.49.06.74,0,7.18,0,14.36.07,21.54,0,3.15.43,6.3.66,9.45.19,2.71.33,5.41.58,8.11.14,1.44,0,3.23.77,4.23,2.18,2.59,3.26,5.93,3,9.31.04,1.17.24,2.33.61,3.44.69,2.92,1.46,5.81,2.11,8.74.61,2.75,1,5.54,1.64,8.29.51,2.58,1.22,5.11,1.86,7.69Z"></path>
        <path class="cls-1" d="m166,545.14c1.59-.26,3.01-1.15,3.93-2.48.89-1.16,1.43-2.55,1.56-4-.08-.74-.1-1.49-.08-2.24v-1.66c-.03-1.14-.12-2.28-.28-3.41l3.5-.6,8.09,47c.96,5.71,1.25,11.51.87,17.29-.28,5.36-1.92,10.56-4.78,15.11-2.67,4.17-6.88,6.74-12.65,7.73-10.91,1.88-19.66-4.43-26.26-18.94-.19,5.44-1.14,10.82-2.82,16-1.4,4.14-3.8,7.86-7,10.83-3.27,2.83-7.29,4.67-11.57,5.3-4.81.78-9.74.11-14.17-1.93-4.79-2.19-8.96-6.34-12.51-12.43-3.75-6.08-6.47-14.08-8.18-24l-7.74-45,3.36-.58c.65,2.43,1.56,4.77,2.72,7,.86,1.23,1.91,2.32,3.11,3.23,1.38,1.06,4.36,1.2,8.94.41l6.96-1.15,55.88-9.6,9.12-1.88Zm-76.77,39.8c-1.24,1.77-1.67,3.98-1.17,6.08l1,3.74c.33,2.44,1.41,4.73,3.08,6.54,1.57,1.8,3.62,3.11,5.91,3.8,4.55,1.42,9.84,1.61,15.89.57,3.72-.7,7.37-1.78,10.87-3.22,2.87-1.83,5.23-4.35,6.86-7.34,1.44-2.85,2.13-6.03,2-9.22-.17-3.56-.57-7.11-1.22-10.62l-36.25,6.23c-3.51.6-5.81,1.75-6.93,3.44h-.04Zm47.39-10.4c.59,4.1,1.73,8.1,3.39,11.9,1.14,2.48,2.91,4.61,5.13,6.19,2.38,1.39,5.1,2.07,7.85,1.95,1.2,0,2.54-.08,4-.23.89-.06,2.07-.21,3.53-.46,4.98-.7,9.67-2.76,13.57-5.94,3.37-3.09,4.6-7.31,3.68-12.67-.5-2.92-1.32-4.78-2.46-5.59-1.18-1-3.03-1.28-5.56-.85l-33.13,5.7Z"></path>
        <path class="cls-1" d="m187.09,630.74c.33-.93.42-1.93.27-2.91l-.72-3.27-1-3.6,3.22-1.52,21.61,45.19-3.49,1.64c-.95-2.12-2.12-4.13-3.5-6-1-1.29-2.24-2.37-3.64-3.2-2.5-.9-6.07-.25-10.72,1.94l-46,21.65c-7.6,3.58-13.1,7.91-16.49,13-3.39,5.09-3.39,11.25,0,18.49l1.72,3.29c7.74,12.96,20.37,15.31,37.88,7.06l43.17-20.33c3.85-1.81,6.11-4.3,6.81-7.46s.2-6.88-1.32-11.51l3.48-1.64,14,29.63-3.49,1.64-3.47-4.59c-.97-1.03-2.18-1.81-3.53-2.27-2.37-.63-5.61.03-9.72,2l-42.37,20c-7.86,3.7-14.62,5.68-20.29,5.95-5.86.33-11.66-1.32-16.46-4.7-3.31-2.24-6.23-5.02-8.63-8.22-1.4-1.77-2.7-3.62-3.91-5.53-1.27-2.01-2.42-4.1-3.43-6.25-2.2-4.48-3.59-9.32-4.11-14.28-.6-6.6-.27-12.01,1-16.22,1.22-4.25,3.53-8.1,6.7-11.17,3.79-3.53,8.13-6.41,12.86-8.52l46.25-21.78c4.04-1.98,6.48-4.15,7.32-6.51Z"></path>
        <path class="cls-1" d="m221.58,723.42c2.74-.98,5.6-1.58,8.5-1.78,5.08-.35,10.15.74,14.64,3.15,4.43,2.55,8.34,5.91,11.54,9.89,1.48,1.88,2.8,3.89,3.94,6l3.64,7.73,3.65,7.74c2.67,2,5.04,2.17,7.11.5l2.91,3.56-25,20.45-2.51-3.11c2.62-3.63,4.72-7.6,6.23-11.81,1.66-4.66,2.3-9.62,1.88-14.55-.44-5.27-2.52-10.26-5.94-14.29-2.89-3.51-6.28-5.47-10.17-5.88-3.81-.59-7.69.51-10.63,3-2.43,1.86-4.12,4.53-4.75,7.53-.78,3.35-.69,6.84.25,10.14l4.13,16.48c1.17,4.96,1.97,10.01,2.39,15.09.41,5.1-.21,10.23-1.83,15.09-3.64,9.93-12.44,17.06-22.91,18.56-5.37.8-10.86.21-15.95-1.7-2.8-1-5.46-2.36-7.91-4.06-2.58-1.66-4.87-3.73-6.79-6.13-2.83-3.26-5.3-6.83-7.36-10.63-1-1.57-1.89-3.21-2.67-4.9-.69-1.48-1.41-3.13-2.14-5-.82-1.95-1.83-3.81-3-5.57-1.5-1.83-3.68-1.83-6.53,0l-2.72-3.32,28.56-23.37,2.72,3.33c-1.37,1.76-3.13,4.29-5.28,7.58-2.15,3.19-3.7,6.75-4.58,10.49-1.26,4.24-1.53,8.72-.79,13.08.75,5.16,2.98,9.99,6.41,13.91,3.1,3.22,7.18,5.33,11.61,6,4.28.71,8.52-.65,12.73-4.1s5.59-9.24,4.16-17.38l-3.76-16.07c-1.19-5.01-1.91-10.12-2.16-15.27-.1-2.31-.01-4.63.27-6.93.39-2.4.94-4.77,1.66-7.1,2.92-7.55,8.91-13.5,16.48-16.36h-.03Z"></path>
        <path class="cls-1" d="m285.38,781.02c.3-1.48.09-3.02-.58-4.37-.7-1.33-1.51-2.6-2.43-3.79-1.19-1.26-2.45-2.45-3.77-3.57l2.29-2.72,39.77,33.53-2.29,2.72c-1.12-.98-2.28-1.9-3.5-2.76-.59-.37-1.7-1-3.31-1.82-1.69-.65-3.53-.79-5.29-.39-1.93.44-4,2-6.23,4.63l-43.65,51.78c-2.74,3.25-4.32,5.67-4.75,7.25-.49,1.71-.3,3.53.54,5.1.65,1.35,1.5,2.59,2.52,3.68,1.18,1.27,2.45,2.46,3.78,3.57l-2.39,2.83-39.77-33.52,2.39-2.84c1.19,1.06,2.5,1.97,3.91,2.72,1.35.76,2.78,1.38,4.26,1.85,1.58.49,3.29.41,4.82-.21,1.42-.61,3.12-2.08,5.09-4.42l45.28-53.71c1.49-1.59,2.62-3.48,3.31-5.54Z"></path>
        <path class="cls-1" d="m319.3,809.63c-.79-2.54-1.97-4.22-3.54-5.05l1.79-3.41,27.54,14.5,16.22,80.54,21.33-40.52c2.06-3.93,2.63-7.54,1.68-10.83s-3.52-6-7.46-8.11l1.8-3.41,28.19,14.84-1.79,3.41-4.28-1.41c-1.78-.66-3.73-.74-5.56-.25-2,.84-3.83,2.84-5.5,6l-41,77.89-3.54-1.86-21-102-29,54.41c-1.89,3.59-2.29,6.78-1.2,9.59,1.01,2.54,3.67,5.22,8,8.05l-1.73,3.28-29.9-15.74,1.73-3.28,2.5,1,2.5,1,2.64.39,2.66-.27c1.65-.27,3.14-1.17,4.16-2.5,1.51-2.1,2.84-4.31,4-6.62l31.41-59.66-2.65-9.98Z"></path>
        <path class="cls-1" d="m412.7,866.02c.64-2.45.99-4.97,1.05-7.51-.1-1.88-1.07-3.6-2.61-4.67-1.7-1.49-4.48-2.66-8.33-3.51l.83-3.76,83.64,18.45-6.41,29-3.76-.82c1.03-12.93-2.77-21.66-11.38-26.18-4.89-2.38-10.06-4.14-15.39-5.22-2.87-.77-5.87-.96-8.82-.58-2.22.42-3.66,2.13-4.32,5.12l-7.37,33.43c5.33,1.17,9.73,1.43,13.18.78,3.33-.64,6.35-2.4,8.53-5,2.85-3.63,5.04-7.74,6.46-12.13l3.91.86-10.78,48.91-3.91-.86c.55-2.43.84-4.91.87-7.4-.18-2.19-.56-4.35-1.15-6.47-1.19-3.8-2.82-6.54-4.87-8.21-2.01-1.8-4.45-3.07-7.08-3.68l-6.24-2-7.91,35.89c-.62,2.79-.08,4.94,1.62,6.42s5.1,2.8,10.21,3.92c17.85,3.94,31.98-1.85,42.38-17.36l4.34.95-12.51,28.63-84.8-18.69.79-3.62c4.62.62,8.12.58,10.5-.11,2.11-.85,3.64-3.4,4.57-7.65l14.76-66.93Z"></path>
        <path class="cls-1" d="m498.14,882.91c.92-2.76,2.22-5.37,3.85-7.78,2.86-4.21,6.85-7.53,11.52-9.57,4.74-1.91,9.8-2.93,14.91-3,2.39,0,4.77.2,7.13.6l8.33,1.91,8.34,1.91c3.25-.85,4.84-2.62,4.79-5.28l4.59-.09.65,32.3-4,.07c-1.23-4.3-3.07-8.4-5.44-12.19-2.64-4.18-6.15-7.75-10.28-10.47-4.41-2.91-9.63-4.36-14.91-4.15-4.54.1-8.17,1.56-10.88,4.37-2.82,2.61-4.36,6.32-4.24,10.16-.04,3.07,1.02,6.04,3,8.39,2.15,2.68,4.94,4.77,8.12,6.07l15.56,7c4.63,2.15,9.08,4.63,13.34,7.44,4.27,2.83,7.92,6.49,10.74,10.76,5.57,8.99,5.74,20.32.44,29.48-2.69,4.72-6.54,8.67-11.19,11.49-2.51,1.6-5.23,2.85-8.08,3.72-2.9.99-5.94,1.5-9,1.52-4.32.21-8.65-.05-12.91-.79-1.85-.17-3.69-.48-5.5-.92-1.59-.37-3.32-.83-5.21-1.38-2.05-.55-4.14-.91-6.25-1.06-2.37,0-3.72,1.75-4,5.12l-4.3.08-.73-36.89,4.29-.09c.54,2.17,1.44,5.11,2.7,8.84,1.18,3.67,3,7.1,5.39,10.12,2.56,3.61,5.92,6.59,9.81,8.7,4.52,2.6,9.69,3.83,14.89,3.56,4.46-.45,8.64-2.36,11.9-5.43,3.2-2.92,4.75-7.11,4.64-12.54s-3.81-10.2-11.1-14l-15-7c-4.68-2.17-9.15-4.76-13.35-7.74-1.88-1.35-3.64-2.85-5.27-4.49-1.65-1.79-3.18-3.69-4.56-5.69-4.14-6.96-5.12-15.35-2.69-23.07h-.04Z"></path>
        <path class="cls-1" d="m576.61,880.08c.31-2.89,1.01-5.73,2.08-8.43,1.89-4.73,5.07-8.83,9.19-11.83,6.2-4.28,13.47-6.73,21-7.06l8.55.07,8.56.07c2.98-1.54,4.16-3.6,3.53-6.19l4.46-1.08,7.59,31.4-3.88.94c-2.13-3.93-4.8-7.55-7.94-10.74-3.48-3.52-7.68-6.24-12.3-8-4.93-1.89-10.34-2.19-15.45-.84-4.4,1.09-7.62,3.3-9.67,6.63-2.21,3.15-2.94,7.11-2,10.84.62,3,2.29,5.68,4.72,7.54,2.67,2.16,5.85,3.6,9.24,4.18l16.71,3.44c4.98,1.1,9.88,2.57,14.64,4.4,4.77,1.84,9.13,4.62,12.8,8.18,7.39,7.58,9.99,18.62,6.78,28.7-1.61,5.19-4.51,9.88-8.44,13.63-2.11,2.1-4.5,3.91-7.09,5.37-2.62,1.59-5.48,2.74-8.47,3.42-4.17,1.13-8.46,1.8-12.78,2-1.85.23-3.71.32-5.57.28-1.63,0-3.43-.08-5.39-.22-2.12-.1-4.23,0-6.33.31-2.31.56-3.26,2.52-2.85,5.87l-4.18,1-8.67-35.86,4.18-1c.99,2,2.51,4.67,4.54,8,1.94,3.32,4.46,6.28,7.44,8.72,3.28,2.97,7.2,5.15,11.45,6.38,4.97,1.55,10.29,1.64,15.31.26,4.26-1.4,7.93-4.16,10.45-7.86,2.5-3.55,3.11-7.96,1.83-13.25s-5.9-9.05-13.86-11.29l-16.11-3.57c-5.03-1.11-9.95-2.68-14.7-4.68-2.13-.91-4.17-2-6.12-3.25-1.99-1.38-3.88-2.9-5.66-4.54-3.45-3.48-5.83-7.88-6.87-12.67-.81-3.02-1.05-6.16-.72-9.27Z"></path>
        <path class="cls-1" d="m700.44,839.16c.23-3.85.88-7.66,1.93-11.37,1.03-3.78,2.43-7.44,4.2-10.93,3.71-6.78,8.97-12.58,15.35-16.94,4.82-3.22,10.11-5.67,15.67-7.29.48-.18.95-.38,1.41-.61.32-.14.66-.26,1-.34.25-.09.51-.15.78-.17,1.26-.26,2.75-.62,4.47-1.07l6-2,1.18-1.16c1.3-1.61,1.46-4.36.48-8.23l3.31-2.26,19.55,28.64-3.06,2.09c-5.08-3.53-10.68-6.23-16.61-8-5.23-1.48-10.69-1.99-16.1-1.5-4.63.35-9.1,1.86-13,4.38-6.07,4-9.86,10.65-10.2,17.91-.24,4.53.31,9.08,1.63,13.42,1.75,5.55,4.36,10.8,7.73,15.54l3.76,6c1.89,2.79,3.95,5.47,6.17,8,2.14,2.61,4.51,5.29,7.12,8.06,4.57,4.77,8.57,7.84,12,9.2,4.25,1.89,8.89,2.75,13.53,2.49,4.56-.35,8.94-1.92,12.69-4.53,1.8-1.26,3.48-2.7,5-4.29,1.64-1.64,3.12-3.43,4.42-5.35,1.33-1.92,2.53-3.92,3.59-6,1.11-2.09,2.03-4.27,2.73-6.53.76-2.19,1.39-4.42,1.9-6.68.41-1.97.61-3.98.59-6l5.76.55c-.48,8.62-2.9,17.02-7.09,24.57-3.8,6.77-9.13,12.56-15.56,16.91-5.18,3.52-10.84,6.3-16.8,8.23-4.76,1.63-9.79,2.38-14.82,2.22-5.16-.26-10.24-1.33-15.07-3.17-5.21-1.93-10.09-4.65-14.48-8.06-4.52-3.31-8.44-7.37-11.6-12l-5.65-10.87c-3.04-7.22-4.37-15.04-3.91-22.86Z"></path>
        <path class="cls-1" d="m769.65,774.02c-2.57.29-5.38,2.24-8.44,5.87l-2.72-2.29,33.36-39.58,2.71,2.29c-1.53,1.81-2.5,3.05-2.94,3.72-.71,1.06-1.29,2.21-1.71,3.41-.87,1.59-1.13,3.45-.71,5.21.39,2.14,1.9,4.33,4.55,6.55l51.76,43.68.81.88.92,1c3.87,2.62,6.21,3.89,7,3.82.79-.07,2.1-.78,3.93-2.12,1.93-1.49,3.69-3.19,5.24-5.07,1.57-1.8,2.96-3.75,4.14-5.82,1-1.7,2.17-3.72,3.38-6.07,1.69-3.46,2.52-7.29,2.42-11.14,0-.78-.07-2.06-.23-3.88s-.54-3.17-.77-4.14c-.64-2.73-1.5-5.41-2.57-8-.5-1.59-1.17-3.12-2-4.57-.25-.47-.71-1.3-1.37-2.51-.26-.52-.54-1.02-.86-1.51l2.86-3.39,21.79,26.33-55.23,65.47-2.83-2.39c.99-1.12,1.84-2.35,2.52-3.68.68-1.19,1.17-2.47,1.47-3.81.5-1.52.36-3.18-.39-4.59-1.11-1.99-2.62-3.73-4.43-5.1l-53.68-45.29c-2.81-2.42-5.47-3.51-7.98-3.28Z"></path>
        <path class="cls-1" d="m826.64,704.15c-.93.35-1.75.92-2.4,1.67l-2,2.65-2.08,3.12-3.23-1.49,20.66-45.63,3.5,1.62c-1.02,2.1-1.82,4.3-2.37,6.57-.34,1.6-.38,3.24-.11,4.85.92,2.49,3.71,4.83,8.38,7l46.18,21.25c7.63,3.51,14.49,4.92,20.56,4.24s10.77-4.67,14.1-11.98l1.41-3.43c4.93-14.26-1.41-25.44-19-33.53l-43.34-19.94c-3.86-1.78-7.22-1.92-10.09-.41-2.74,1.46-5.39,4.27-7.95,8.42l-3.5-1.61,13.69-29.76,3.5,1.61-1.28,5.65c-.17,1.41.02,2.84.54,4.16,1.04,2.23,3.62,4.29,7.75,6.18l42.55,19.58c7.9,3.63,13.77,7.53,17.61,11.7,4.03,4.27,6.5,9.77,7,15.62.42,3.98.17,8-.74,11.89-.46,2.21-1.03,4.4-1.71,6.56-.72,2.26-1.58,4.48-2.57,6.64-2.02,4.57-4.83,8.74-8.29,12.34-4.67,4.7-9.03,7.91-13.08,9.64-4.03,1.8-8.47,2.51-12.86,2.07-5.14-.63-10.14-2.11-14.8-4.36l-46.45-21.37c-4.02-1.89-7.21-2.39-9.58-1.52Z"></path>
        <path class="cls-1" d="m870.76,610.39c-1.58-.3-3.22.06-4.53,1-1.22.81-2.19,1.96-2.79,3.3-.17.73-.39,1.44-.66,2.14-.17.48-.36,1-.56,1.56-.34,1.09-.62,2.2-.84,3.32l-3.51-.58,7.77-47.08c.97-5.71,2.59-11.29,4.85-16.63,2.01-4.97,5.27-9.35,9.46-12.7,3.91-3.06,8.74-4.12,14.49-3.17,10.92,1.81,17.12,10.64,18.6,26.51,1.97-5.07,4.62-9.83,7.9-14.17,2.69-3.43,6.19-6.13,10.18-7.87,4.02-1.61,8.41-2.03,12.66-1.21,4.8.83,9.24,3.08,12.75,6.46,3.81,3.63,6.4,8.91,7.75,15.85,1.55,6.97,1.51,15.42-.13,25.36l-7.44,45-3.37-.55c.2-2.52.11-5.06-.25-7.56-.41-1.44-1.05-2.81-1.88-4.06-.96-1.46-3.73-2.57-8.31-3.33l-6.9-1.11-56-9.25-9.24-1.23Zm37.4-18.16c.79-4.07,1.02-8.22.69-12.35-.26-2.71-1.23-5.31-2.82-7.52-1.78-2.1-4.13-3.64-6.77-4.43-1.14-.38-2.43-.75-3.88-1.09-1.15-.3-2.31-.54-3.48-.72-4.94-.97-10.05-.57-14.77,1.16-4.2,1.83-6.74,5.41-7.63,10.74-.48,2.92-.32,5,.5,6.09.78,1.33,2.45,2.21,5,2.62l33.16,5.5Zm48.17,5.71c1.76-1.25,2.9-3.19,3.14-5.34l.33-3.85c.49-2.42.22-4.93-.76-7.19-.91-2.21-2.41-4.12-4.35-5.52-3.83-2.84-8.77-4.76-14.82-5.75-3.75-.57-7.55-.74-11.33-.52-3.31.79-6.37,2.4-8.88,4.69-2.3,2.2-4,4.96-4.94,8-1,3.42-1.78,6.91-2.32,10.43l36.26,6c3.51.6,6.07.28,7.67-.95h0Z"></path>
        <path class="cls-1" d="m204.18,242.76c-.45-3.83-.49-7.69-.1-11.53.35-3.9,1.09-7.76,2.21-11.51,2.47-7.32,6.63-13.96,12.14-19.37,4.18-4.01,8.95-7.36,14.14-9.92.35-.2.78-.48,1.27-.82.29-.21.61-.39.95-.52.22-.14.47-.25.73-.31,1.2-.47,2.6-1.09,4.21-1.84l5.59-3,1-1.36c1-1.8.67-4.53-1-8.18l2.85-2.8,24.28,24.76-2.65,2.6c-5.63-2.58-11.64-4.25-17.8-4.94-5.42-.57-10.89-.13-16.15,1.3-4.49,1.15-8.62,3.42-12,6.59-5.28,5-7.84,12.22-6.9,19.43.55,4.51,1.89,8.88,3.95,12.92,2.69,5.16,6.18,9.86,10.34,13.94l4.77,5.28c2.34,2.42,4.84,4.69,7.48,6.79,2.56,2.19,5.37,4.42,8.42,6.68,5.33,3.9,9.82,6.22,13.45,6.95,4.51,1.09,9.22,1.09,13.73,0,4.42-1.15,8.46-3.46,11.7-6.69,1.54-1.56,2.92-3.27,4.13-5.1,1.32-1.89,2.46-3.9,3.42-6,.96-2.14,1.79-4.34,2.47-6.58.73-2.25,1.24-4.56,1.54-6.9.36-2.29.59-4.6.7-6.91.06-2.01-.1-4.02-.47-6l5.77-.46c1.04,8.57.13,17.26-2.66,25.43-2.56,7.31-6.78,13.93-12.33,19.33-4.48,4.39-9.57,8.11-15.1,11.06-4.4,2.45-9.21,4.07-14.19,4.79-5.13.64-10.32.48-15.4-.47-5.47-.99-10.75-2.8-15.67-5.38-5.03-2.47-9.6-5.78-13.52-9.78l-7.48-9.72c-4.24-6.56-6.91-14-7.82-21.76Z"></path>
        <path class="cls-1" d="m290.49,153.64c-1.47-.84-3.16-1.19-4.84-1-2.39.54-4.73,1.29-7,2.22l-1.6-3.18,44.44-22.45,1.6,3.17c-2.98,1.9-5.67,4.21-8,6.86-1.23,1.95-.79,5,1.3,9.14l13.61,26.81,32-16.19-12.9-25.53c-1.08-2.34-2.59-4.45-4.47-6.21-1.23-1.21-2.93-1.81-4.65-1.64-1,.18-1.72.32-2.12.41-1.1.22-1.8.36-2.11.41-1.49.39-2.93.95-4.3,1.67l-1.65-3.11,45-22.73,1.61,3.18c-2.38,1.08-4.56,2.57-6.42,4.4-1.28,1.33-2.05,3.07-2.16,4.91.1,2.14.7,4.22,1.75,6.09l31.42,62.26c1.91,3.79,3.78,6.17,5.59,7.13,1.75.96,3.83,1.12,5.71.44l6.09-2.08,1.53,3-45,22.73-1.67-3.31c1.81-.88,3.49-2,5-3.33,1.21-1.03,2.23-2.27,3-3.66,1.19-2.26.98-4.98-.63-8.15l-15.5-30.69-32,16.18,15.37,30.42c1.7,3.35,3.78,5.18,6.25,5.47,2.7.3,6.12-.37,10.27-2l1.67,3.31-44.47,22.43-1.67-3.31c4.67-3,7.26-5.67,7.78-7.92s0-4.93-1.69-8.28l-.87-1.72-29.14-57.67c-2.22-4.37-4.26-7.2-6.13-8.48Z"></path>
        <path class="cls-1" d="m412.31,102.41c-1.01-1.12-2.37-1.87-3.86-2.13-1.47-.21-2.96-.3-4.45-.26-1.72.21-3.42.51-5.11.91l-.89-3.51,50.61-12,.82,3.46c-1.44.3-2.86.68-4.26,1.14-.65.26-1.79.78-3.43,1.58-1.53.96-2.74,2.35-3.47,4-.79,1.82-.78,4.4,0,7.77l15.6,65.9c.98,4.13,1.98,6.83,3,8.12,1.08,1.41,2.66,2.35,4.42,2.61,1.47.29,2.97.34,4.46.16,1.72-.19,3.43-.5,5.11-.9l.85,3.6-50.61,12-.86-3.6c1.56-.33,3.08-.85,4.52-1.53,1.41-.64,2.75-1.42,4-2.32,1.33-.98,2.29-2.4,2.7-4,.36-1.5.18-3.74-.52-6.72l-16.19-68.36c-.38-2.13-1.21-4.15-2.44-5.92Z"></path>
        <path class="cls-1" d="m476.74,86.56c-1.88-1.86-3.72-2.79-5.5-2.79v-3.85l31.12-.15,52.18,63.47-.23-45.8c0-4.44-1.2-7.89-3.61-10.35-2.48-2.45-5.94-3.68-10.39-3.65v-3.86l31.86-.15v3.85l-4.44.76c-1.87.27-3.62,1.11-5,2.4-1.37,1.68-2.05,4.31-2,7.86l.43,88h-4l-66.56-80.1v61.65c0,4.05,1.15,7.05,3.45,9,2.08,1.76,5.69,2.88,10.83,3.35v3.7l-33.78.17v-3.7l2.66-.31,2.67-.31,2.51-.9,2.22-1.5c1.33-1.02,2.23-2.51,2.5-4.16.34-2.56.48-5.13.41-7.71l-.34-67.42-6.99-7.5Z"></path>
        <path class="cls-1" d="m607.26,103.66c.78-2.41,1.29-4.9,1.52-7.43.01-1.88-.85-3.66-2.32-4.83-1.6-1.59-4.3-2.92-8.1-4l1.07-3.7,82.33,23.63-8.22,28.63-3.7-1.07c1.83-12.83-1.41-21.78-9.72-26.83-4.72-2.68-9.76-4.76-15-6.17-2.82-.94-5.8-1.33-8.77-1.13-2.24.28-3.78,1.9-4.62,4.84l-9.45,32.9c5.22,1.5,9.59,2.04,13.11,1.61,3.36-.42,6.47-1.97,8.82-4.41,3.09-3.47,5.54-7.47,7.24-11.8l3.84,1.11-13.81,48.14-3.85-1.1c.71-2.39,1.15-4.85,1.33-7.33-.04-2.2-.28-4.38-.74-6.53-.95-3.87-2.4-6.71-4.35-8.5-1.9-1.92-4.25-3.33-6.83-4.12l-6.11-2.37-10.14,35.33c-.79,2.75-.38,4.93,1.22,6.52s4.91,3.1,9.95,4.55c17.56,5.04,32.02.14,43.37-14.69l4.28,1.23-14.31,27.81-83.47-24,1-3.56c4.58.9,8.08,1.08,10.49.54,2.15-.71,3.82-3.15,5-7.34l18.94-65.93Z"></path>
        <path class="cls-1" d="m707.49,137.86c2.23-1.87,4.7-3.43,7.34-4.64,4.63-2.11,9.77-2.88,14.82-2.2,7.42,1.21,14.36,4.48,20,9.46l6.12,6,6.13,6c3.21,1,5.49.28,6.84-2l4,2.31-16.27,27.91-3.46-2c1.19-4.31,1.77-8.77,1.72-13.24-.08-4.95-1.21-9.82-3.33-14.29-2.25-4.78-5.95-8.73-10.56-11.31-3.43-2.21-7.61-2.91-11.57-1.94-3.77.77-7.02,3.13-8.91,6.47-1.63,2.59-2.28,5.68-1.83,8.71.44,3.41,1.74,6.65,3.78,9.41l9.65,14c2.83,4.24,5.34,8.69,7.51,13.3,2.16,4.63,3.36,9.65,3.53,14.76.06,10.58-5.7,20.35-15,25.4-4.75,2.64-10.1,4.01-15.53,4-2.97.06-5.94-.28-8.83-1-2.99-.67-5.85-1.82-8.48-3.4-3.8-2.07-7.35-4.55-10.61-7.39-1.49-1.12-2.9-2.34-4.22-3.66-1.17-1.14-2.41-2.44-3.73-3.89-1.46-1.53-3.06-2.93-4.78-4.17-2-1.19-4.09-.44-6.12,2.27l-3.7-2.22,18.59-31.87,3.72,2.16c-.67,2.13-1.44,5.11-2.31,8.95-.9,3.75-1.13,7.62-.67,11.45.31,4.41,1.62,8.7,3.84,12.53,2.5,4.57,6.27,8.32,10.86,10.79,4.04,1.95,8.61,2.5,13,1.57,4.26-.83,7.76-3.59,10.5-8.29,2.74-4.7,2.02-10.63-2.17-17.78l-9.14-13.74c-2.86-4.28-5.33-8.82-7.36-13.55-.91-2.13-1.63-4.33-2.17-6.58-.48-2.39-.79-4.81-.93-7.24.1-8.09,3.64-15.76,9.73-21.09v.04Z"></path>
        <path class="cls-1" d="m795.76,194.2c1.84-1.74,3.48-3.69,4.88-5.8.91-1.64,1.01-3.61.28-5.34-.67-2.17-2.4-4.63-5.2-7.4l2.7-2.75,61.05,60.11-20.89,21.2-2.75-2.7c7.74-10.4,9.17-19.81,4.28-28.22-2.88-4.61-6.32-8.85-10.26-12.6-2.03-2.18-4.46-3.94-7.17-5.18-2.1-.82-4.23-.15-6.38,2l-24,24.4c3.87,3.81,7.46,6.37,10.75,7.66,3.15,1.24,6.62,1.36,9.85.35,4.38-1.57,8.44-3.91,12-6.91l2.85,2.81-35.14,35.7-2.85-2.81c1.76-1.76,3.32-3.71,4.67-5.8,1.02-1.95,1.84-3.99,2.47-6.1,1.02-3.85,1.1-7.03.24-9.54-.74-2.59-2.11-4.96-4-6.88l-4.23-5-25.78,26.2c-2,2.04-2.68,4.14-2.05,6.3s2.82,5.08,6.57,8.75c13.03,12.82,28.07,15.42,45.12,7.81l3.17,3.12-25.94,17.64-61.89-60.91,2.6-2.65c3.59,2.98,6.59,4.81,9,5.49,2.24.4,4.88-.93,7.93-4l48.12-48.95Z"></path>
        <polygon class="cls-1" points="141.34 338.67 125.79 386.34 75.65 386.29 116.18 415.81 100.63 463.48 141.23 434.05 181.76 463.57 166.32 415.86 206.92 386.44 156.78 386.38 141.34 338.67"></polygon>
        <polygon class="cls-1" points="913.92 338.67 929.47 386.34 979.61 386.29 939.07 415.81 954.62 463.48 914.02 434.05 873.49 463.57 888.93 415.86 848.33 386.44 898.48 386.38 913.92 338.67"></polygon>
        <path class="cls-1" d="m364.59,419.02l.52-3.31c.06-.7-.16-1.39-.61-1.92-.44-.41-.94-.74-1.48-1l-2.17-.43-2-.26v-2.18h46.41l-3.74,16.63-2.36-.44.09-.87v-.87c0-4.23-1.28-7.23-3.83-9-2.55-1.77-6.47-2.64-11.75-2.61h-1.05c-2-.13-3.79,1.25-4.18,3.22l-5.44,20.04,2.09.18c2.22.04,4.44-.2,6.61-.7,1.48-.39,2.88-1.07,4.1-2,.86-.63,1.57-1.43,2.09-2.35l2.26-4.36,2.61.35-6.58,23.88-2.35-.53.09-1.65.08-1.91c0-2.67-.52-4.55-1.56-5.66-1.74-1.57-5.19-2.35-10.36-2.35l-5.75,21.41-.35,2.09c.23,2.5,2.32,3.75,6.27,3.75v2.17h-25.51v-2.22c1.34-.15,2.63-.53,3.83-1.14.77-.42,1.41-1.06,1.83-1.83.58-1.36,1.07-2.75,1.48-4.17l10.71-39.96Z"></path>
        <path class="cls-1" d="m415.61,434.16c2.12-1.93,4.57-3.46,7.23-4.52,2.41-.95,4.98-1.45,7.57-1.48,2.43-.03,4.84.54,7,1.65,2.11,1.18,3.85,2.91,5.05,5,1.23,2.18,1.86,4.64,1.83,7.14.01,3.4-.64,6.78-1.92,9.93-1.26,3.18-3.06,6.12-5.31,8.7-2.28,2.57-4.99,4.72-8,6.36-2.88,1.59-6.11,2.43-9.4,2.44-2.41.03-4.81-.47-7-1.48-2.08-.96-3.83-2.5-5.05-4.44-1.36-2.29-2.03-4.92-1.92-7.58,0-4.35,1.36-9.11,4.09-14.28,1.5-2.79,3.48-5.31,5.83-7.44Zm.52,24.47l-.17,2.52c0,.68.08,1.35.26,2,.17.73.43,1.44.78,2.1.46.88,1.36,1.45,2.35,1.48l1,.17c2.26,0,4.35-1.51,6.27-4.53,1.5-2.61,2.79-5.35,3.83-8.18,1.06-2.89,1.87-5.86,2.43-8.88.59-3.01.89-6.07.88-9.14.08-1.36-.13-2.72-.61-4-.53-.85-1.44-1.4-2.44-1.48-2.59.04-5.01,1.3-6.53,3.4-2.09,2.71-3.68,5.78-4.7,9.05-1.53,5.07-2.65,10.25-3.35,15.49h0Z"></path>
        <path class="cls-1" d="m468.63,439.91c.67-1.04,1.54-2.26,2.61-3.66,1.63-2.15,3.53-4.08,5.66-5.74,2.14-1.61,4.73-2.49,7.4-2.53,4.24,0,6.36,2.26,6.36,6.79-.02,1.38-.2,2.76-.52,4.1-.93,3.6-2.09,7.46-3.49,11.57l-3.31,10.37-.08.34-.09.7c0,.58.12.9.35,1l.78.34c1.15-.36,2.19-1.02,3-1.91,1.26-1.47,2.39-3.05,3.4-4.7l1.83,1c-2.27,4.24-4.53,7.24-6.8,9-2.01,1.65-4.53,2.57-7.13,2.61-3.95,0-5.93-2-5.92-6,0-.73.06-1.45.17-2.17.14-.88.35-1.76.61-2.61l1.22-4.62,1.83-5.39,1.56-4.88,1-2.87,1.05-3,.26-1.39c-.01-.83-.59-1.55-1.4-1.75-1.74.1-3.38.85-4.61,2.09-1.87,1.74-3.48,3.73-4.79,5.92-.65.89-1.23,1.82-1.74,2.79-.12.23-.41.84-.87,1.83-.14.22-.26.46-.35.7-.58,1.27-1.19,2.67-1.83,4.17-.81,2.09-1.42,3.69-1.83,4.79-.29.82-.75,2.24-1.39,4.27,0,.06-.12.46-.35,1.22-.46,1.62-1.01,3.65-1.65,6.09h-10.57l8.36-30.12c.32-.97.5-1.98.53-3,0-1.1-.3-1.77-.88-2-1.22-.31-2.48-.43-3.74-.35v-2.26c2.54,0,5.07-.2,7.57-.61,1.92-.29,5.17-.87,9.76-1.74l-5.05,16,.17.34c1.81-3.08,2.79-4.62,2.91-4.73Z"></path>
        <path class="cls-1" d="m519.74,428.16c2.9,0,5.05.9,6.44,2.7l3.57-13.41.35-2.53c.05-.65-.14-1.3-.53-1.83-.46-.4-1.04-.64-1.65-.69l-3-.09v-2.35c8.59-.75,14.66-1.59,18.2-2.52l-13.84,50.32-.53,2.35-.43,2.09.52.61.44.52c1.39-.18,3.39-2.33,6-6.44l1.83,1.39c-4.35,7.37-8.7,11.06-13.06,11.06-3.54,0-5.31-1.95-5.31-5.84.18-1.77.51-3.51,1-5.22l-.18.18c-1.01,2.15-2.33,4.14-3.92,5.91-1.4,1.57-3.12,2.82-5.05,3.66-1.65.84-3.46,1.28-5.31,1.31-2.53.06-4.95-1.07-6.53-3.05-1.74-2-2.61-4.88-2.61-8.53.09-2.4.53-4.78,1.31-7.05.85-2.88,2.08-5.63,3.65-8.19,1.57-2.62,3.45-5.04,5.58-7.23,4.35-4.75,8.7-7.12,13.06-7.13Zm-4,7.31c-2.3,2.77-4.1,5.92-5.31,9.31-1.22,3.26-2.09,5.84-2.61,7.75-.59,1.86-.93,3.8-1,5.75,0,3,1.13,4.59,3.4,4.87,2,0,4.03-1.36,6.09-4.09,2.3-3.29,4.11-6.9,5.4-10.7,2-5.75,3-9.81,3-12.19,0-2.96-1.05-4.44-3.14-4.44-1.92,0-3.87,1.29-5.84,3.74h.01Z"></path>
        <path class="cls-1" d="m556.39,431.38c3.13-2.11,6.83-3.23,10.61-3.22,1.47,0,2.92.3,4.27.87,1.4.58,2.63,1.51,3.57,2.7.86,1.19,1.32,2.62,1.3,4.09-.11,2.5-1.06,4.89-2.7,6.79-2.12,2.58-4.76,4.68-7.74,6.18-3.73,1.91-7.77,3.15-11.93,3.66l-.7,4.44c0,4.67,1.74,7,5.22,7,2.11,0,4.17-.71,5.84-2,1.98-1.69,3.63-3.72,4.87-6l2.62,1.57c-4.67,7.95-10.24,11.92-16.72,11.93-2.63.04-5.21-.72-7.4-2.18-2.26-1.45-3.95-3.63-4.79-6.18-.45-1.56-.74-3.17-.87-4.79.01-1.32.16-2.63.44-3.92.32-1.53.72-3.04,1.21-4.52,1.02-2.92,2.46-5.68,4.27-8.19,2.32-3.27,5.25-6.07,8.63-8.23Zm9.23-.35c-1.39,0-2.71.64-3.57,1.74-.72.71-1.36,1.5-1.92,2.35-.52.87-1.13,2-1.83,3.31-1.09,2.31-2.02,4.7-2.78,7.14-.52,1.29-.89,2.63-1.13,4,3.71-.83,7.08-2.78,9.66-5.57,2.57-2.6,4-6.1,4-9.75,0-1.51-.3-2.46-.87-2.87-.48-.25-1.02-.38-1.56-.36h0Zm-7-7.84l11.49-12.36c1.07-1.33,2.4-2.43,3.92-3.22l.52-.09.52-.08c1.16.02,2.27.45,3.14,1.21.87.77,1.35,1.89,1.3,3.05,0,1.16-.96,2.41-2.87,3.74l-13.76,7.75h-4.26Z"></path>
        <path class="cls-1" d="m616.72,431.38c3.14-2.11,6.84-3.24,10.63-3.22,1.46,0,2.91.3,4.26.87,1.41.57,2.64,1.5,3.57,2.7.86,1.19,1.32,2.62,1.31,4.09-.11,2.5-1.06,4.89-2.7,6.79-2.12,2.58-4.76,4.69-7.75,6.18-3.73,1.91-7.77,3.15-11.93,3.66l-.69,4.44c0,4.67,1.74,7,5.22,7,2.11,0,4.16-.71,5.83-2,1.98-1.69,3.63-3.72,4.88-6l2.61,1.57c-4.67,7.95-10.24,11.92-16.72,11.93-2.63.04-5.21-.72-7.4-2.18-2.25-1.45-3.94-3.63-4.78-6.18-.45-1.56-.74-3.17-.88-4.79.02-1.32.17-2.63.44-3.92.32-1.53.73-3.04,1.22-4.52,1.02-2.92,2.46-5.68,4.26-8.19,2.32-3.27,5.25-6.06,8.62-8.23Zm9.28-.36c-1.39,0-2.71.64-3.57,1.74-.72.71-1.36,1.5-1.91,2.35-.52.87-1.13,2-1.83,3.31-1.1,2.31-2.03,4.7-2.79,7.14-.51,1.29-.89,2.63-1.13,4,3.71-.83,7.09-2.77,9.67-5.57,2.56-2.6,4-6.1,4-9.75,0-1.51-.29-2.46-.87-2.87-.48-.25-1.03-.37-1.57-.35Z"></path>
        <path class="cls-1" d="m659.56,439.91c.7-1.04,1.57-2.26,2.61-3.66,1.63-2.15,3.53-4.08,5.66-5.74,2.14-1.61,4.73-2.49,7.4-2.53,4.24,0,6.36,2.26,6.36,6.79-.02,1.38-.2,2.76-.53,4.1-.93,3.6-2.09,7.46-3.48,11.57l-3.31,10.37-.08.34-.09.7c0,.58.11.9.35,1l.78.34c1.15-.36,2.18-1.02,3-1.91,1.25-1.48,2.39-3.05,3.4-4.7l1.82,1c-2.26,4.24-4.52,7.24-6.79,9-2.02,1.65-4.53,2.57-7.14,2.61-3.94,0-5.92-2-5.92-6,0-.73.07-1.45.18-2.17.14-.88.35-1.76.61-2.61l1.22-4.62,1.82-5.39,1.57-4.88,1-2.87,1-3,.27-1.39c-.01-.83-.59-1.55-1.4-1.75-1.74.1-3.38.85-4.61,2.09-1.87,1.74-3.48,3.73-4.79,5.92-.66.88-1.24,1.81-1.74,2.79-.12.23-.41.84-.87,1.83-.14.22-.26.45-.35.7-.58,1.27-1.19,2.67-1.83,4.17-.81,2.09-1.42,3.69-1.83,4.79-.29.82-.75,2.24-1.39,4.27,0,.06-.12.46-.35,1.22-.46,1.62-1.01,3.65-1.65,6.09h-10.58l8.36-30.12c.31-.97.49-1.98.52-3,0-1.1-.29-1.77-.87-2-1.22-.31-2.48-.43-3.74-.35v-2.26c2.54,0,5.07-.2,7.57-.61,1.92-.29,5.17-.87,9.75-1.74l-5.05,16,.18.34c1.86-3.08,2.84-4.62,2.96-4.73Z"></path>
        <path class="cls-1" d="m405.77,549.58c.1-5.28-1.58-10.44-4.77-14.64-3.09-4.07-7.42-6.1-13-6.11-4.51.09-8.92,1.37-12.78,3.71-4.71,2.99-8.65,7.05-11.48,11.85l-4.08-2.22c4.67-8.89,9.67-15.74,15-20.56,5.4-4.8,11.99-8.07,19.08-9.45l6.11-.56c5.46-.09,10.84,1.32,15.56,4.08,4.48,2.87,8.17,6.82,10.74,11.48,2.41,5.04,3.67,10.54,3.71,16.12v4.82c-.74,6.05-3.21,12.1-7.41,18.15-4.14,6.23-9.06,11.89-14.64,16.86l-2.4,2.22-4.41,3.89c-2.22,1.85-4.55,3.82-7,5.93-3.21,2.72-5.74,4.88-7.59,6.48-6.92,5.68-13.28,11.11-19.08,16.3h29.08c3.82.11,7.63-.39,11.3-1.48,2.72-.91,5.19-2.43,7.22-4.45,2.48-2.64,4.54-5.63,6.12-8.89h4.63l-14.82,35.38h-68v-4.26l26.67-26.86c6.91-7.28,13.77-15.12,20.56-23.52,6.18-7.66,10.44-14.39,12.78-20.19,1.81-4.48,2.79-9.25,2.9-14.08Z"></path>
        <path class="cls-1" d="m462.45,537.35c3.46-5.13,7.48-9.86,12-14.08,3.79-3.63,8.19-6.58,13-8.7,3.97-1.78,8.25-2.73,12.6-2.78,6.79,0,12.29,2.28,16.48,6.85,4.41,4.84,7.59,10.67,9.26,17,1.96,6.49,2.97,13.22,3,20-.08,14.48-2.91,28.81-8.34,42.23-4.32,10.26-9.07,18.54-14.26,24.83-5.44,6.54-11.06,11.23-16.86,14.08s-11.24,4.28-16.33,4.31c-6.92,0-12.54-2.04-16.86-6.12-4.49-4.35-7.8-9.76-9.63-15.74-2.08-6.4-3.14-13.09-3.15-19.82,0-6.98.74-13.93,2.22-20.75,1.72-7.31,3.95-14.49,6.67-21.49,2.71-6.94,6.13-13.58,10.2-19.82Zm4.26,60.21c-2.84,12.1-4.26,20.43-4.26,25,0,7.66,2.78,11.99,8.34,13l1.48.37c4.67-.49,8.62-3.58,11.85-9.26,2.23-3.95,4.64-9.82,7.23-17.6,2.34-6.79,4.62-14.38,6.85-22.78.37-1.12,1.3-4.45,2.78-10,.74-2.96,1.41-5.86,2-8.7.49-1.73.86-3.21,1.11-4.45l3.52-15.75c1.11-5.39,1.74-10.87,1.89-16.37,0-8.15-2.53-12.71-7.59-13.7-3.22,0-6.18,1.42-8.89,4.26-1.24,1.38-2.36,2.87-3.34,4.44l-.37.74c-1.46,2.38-2.76,4.86-3.89,7.41-2,4.57-4.47,11.61-7.41,21.12-5.68,19.78-9.45,33.87-11.3,42.27h0Z"></path>
        <path class="cls-1" d="m577.86,542.17l1.29-4.26.93-3.89.37-2.6c0-4.32-2.9-6.48-8.71-6.48l-5.92.37-5.75.37.37-4.07c21.74-3.33,38.54-6.61,50.39-9.82l-30,108.55-1.48,6.48c0,2.35.67,4.02,2,5,1.73,1.11,3.7,1.79,5.74,2l10.74.37v4.26h-63.69v-4.26c4.7.07,9.36-.81,13.71-2.59,3.82-1.6,6.6-5.74,8.33-12.41l21.68-77.02Z"></path>
        <path class="cls-1" d="m683.63,549.58c.09-5.28-1.61-10.44-4.82-14.64-3.09-4.07-7.42-6.1-13-6.11-4.52.09-8.93,1.37-12.79,3.71-4.71,2.99-8.65,7.05-11.48,11.85l-4.08-2.22c4.67-8.89,9.67-15.74,15-20.56,5.4-4.8,11.99-8.07,19.08-9.45l6.11-.56c5.46-.09,10.84,1.32,15.56,4.08,4.5,2.87,8.21,6.81,10.79,11.48,2.41,5.04,3.67,10.54,3.71,16.12v4.82c-.74,6.05-3.21,12.1-7.41,18.15-4.13,6.22-9.05,11.89-14.63,16.86l-2.41,2.22-4.45,3.89c-2.22,1.85-4.55,3.82-7,5.93-3.21,2.72-5.74,4.88-7.59,6.48-6.92,5.68-13.28,11.11-19.08,16.3h29.08c3.82.11,7.63-.39,11.3-1.48,2.72-.91,5.19-2.43,7.23-4.45,2.47-2.64,4.53-5.64,6.11-8.89h4.63l-14.82,35.38h-68v-4.26l26.67-26.86c6.92-7.28,13.77-15.12,20.56-23.52,6.18-7.66,10.44-14.39,12.79-20.19,1.82-4.48,2.82-9.25,2.94-14.08Z"></path>
      </g>
    </g>
  </g>
</svg>